<?xml version="1.0" encoding="utf-8"?>
<!-- Generator: Adobe Illustrator 28.1.0, SVG Export Plug-In . SVG Version: 6.00 Build 0)  -->
<svg version="1.1" id="Capa_1" xmlns="http://www.w3.org/2000/svg" xmlns:xlink="http://www.w3.org/1999/xlink" x="0px" y="0px"
	 viewBox="0 0 185 45" style="enable-background:new 0 0 185 45;" xml:space="preserve">
<style type="text/css">
	.st0{fill:none;stroke:#000000;stroke-width:0.2789;stroke-miterlimit:10;}
	.st1{stroke:#000000;stroke-width:0.2789;stroke-miterlimit:10;}
	.st2{fill:none;}
	.st3{fill:#FFFFFF;stroke:#FFFFFF;stroke-width:0.2789;stroke-miterlimit:10;}
</style>
<g>
	<g>
	</g>
</g>
<g>
	<path class="st0" d="M47.86,4.08"/>
	<g>
		<path d="M24.37,25.31c-0.45-6.56,8.12-10.57,12.46-5.16c3.27,3.85,0.98,10.37-4.28,10.6c-5.53,0.43-8.19-7.46-3.12-10.11
			c3.14-1.73,7.12,0.97,6.48,4.55c-0.55,3.66-5.83,4.52-6.91,0.74c-1-3.8,4.77-5.43,5.02-1.25c-0.04-0.71-0.4-1.38-0.97-1.76
			c-1.11-0.82-2.79-0.24-3.32,0.97c-0.87,1.77,0.87,4.07,2.79,3.61c1.22-0.19,2.19-1.27,2.32-2.47c0.34-2.6-2.52-4.56-4.81-3.22
			c-2.29,1.16-2.54,4.47-0.81,6.23c1.68,1.96,4.89,1.67,6.55-0.19c1.82-1.87,1.74-5.01,0.21-7.05
			C32.21,15.76,24.44,19.46,24.37,25.31L24.37,25.31z"/>
	</g>
	<polygon class="st1" points="46.05,33.36 41.11,31.93 41.11,31.51 38.64,30.75 38.64,29.79 43.25,29.08 43.25,26.97 46.05,26.06 	
		"/>
	<polygon class="st1" points="46.03,15.91 40.94,17.32 40.94,17.73 38.4,18.48 38.4,19.42 43.15,20.13 43.15,22.2 46.03,23.1 	"/>
	<polygon class="st1" points="23.16,39.13 24.58,34.19 25,34.19 25.76,31.72 26.72,31.72 27.44,36.33 29.54,36.33 30.45,39.13 	"/>
	<polygon class="st1" points="40.14,39.11 38.74,34.02 38.32,34.02 37.58,31.47 36.63,31.47 35.93,36.23 33.86,36.23 32.96,39.11 	
		"/>
	<path class="st0" d="M26.93,24.35"/>
	<path class="st0" d="M29.36,12.49"/>
	<path class="st1" d="M46.03,16.37"/>
	<path class="st0" d="M47.14,37.11"/>
	<path id="SVGID_x5F_1_x5F_" class="st2" d="M38.62,15.83c5.45,3.32,7.17,10.43,3.85,15.88c-3.32,5.45-10.43,7.17-15.88,3.85
		c-5.45-3.32-7.17-10.43-3.85-15.88S33.17,12.51,38.62,15.83z"/>
	<text>	<textPath  xlink:href="#SVGID_x5F_1_x5F_" startOffset="72.4087%">
<tspan  style="font-family:'CopperplateGothic-Light'; font-size:4.4622px;">PERÚ</tspan>	</textPath>
</text>
	<g>
		<g id="_x3C_Repetición_radial_x3E__00000013176863968571876300000005767430950522730664_">
			<path class="st1" d="M30.8,44.63l0.13-0.89c0,0,2.3,0.72,3.64,0.33l0.94,6.29c0,0-4.01-0.01-5.1-0.22l1.03-4.77l2.35,0.03
				L33.94,49c0,0-1.26,0.19-2.06-0.15l0.15-2.06l0.45,0.05l-0.15,1.49c0,0,0.6,0.25,0.89,0.13l0.03-2.35l-1.38-0.1
				c0,0-0.67,1.61-0.73,3.47c0,0,2.87,0.48,3.32-0.04c0,0-0.04-3.32-0.43-4.66C34.03,44.79,31.89,44.85,30.8,44.63z"/>
		</g>
		<g id="_x3C_Repetición_radial_x3E__00000158026892512111579180000006205766977212646813_">
			<path class="st1" d="M23.32,42.23l0.48-0.76c0,0,1.81,1.59,3.19,1.78l-1.7,6.13c0,0-3.66-1.64-4.57-2.28l2.88-3.94l2.13,0.98
				l-1.32,3.36c0,0-1.23-0.34-1.83-0.97l0.97-1.83l0.39,0.23l-0.74,1.31c0,0,0.45,0.47,0.76,0.48l0.98-2.13l-1.22-0.65
				c0,0-1.26,1.2-2.08,2.88c0,0,2.43,1.6,3.05,1.31c0,0,1.31-3.05,1.5-4.43C26.21,43.69,24.23,42.87,23.32,42.23z"/>
		</g>
		<g id="_x3C_Repetición_radial_x3E__00000145780631961922462610000013562339802005307541_">
			<path class="st1" d="M17.46,36.98l0.75-0.5c0,0,1.01,2.19,2.19,2.92l-4.04,4.9c0,0-2.68-2.98-3.25-3.94l4.23-2.43l1.55,1.76
				l-2.57,2.53c0,0-0.98-0.81-1.27-1.63l1.63-1.27l0.27,0.37l-1.21,0.89c0,0,0.22,0.62,0.5,0.75L18,39.8l-0.85-1.09
				c0,0-1.64,0.58-3.07,1.78c0,0,1.56,2.45,2.25,2.44c0,0,2.44-2.25,3.18-3.44C19.51,39.5,18.03,37.94,17.46,36.98z"/>
		</g>
		<g id="_x3C_Repetición_radial_x3E__00000109020603735539276520000001616561219303634099_">
			<path class="st1" d="M14.25,29.82l0.89-0.15c0,0,0.03,2.41,0.81,3.56l-5.69,2.84c0,0-1.23-3.81-1.37-4.92l4.85-0.5l0.7,2.24
				l-3.38,1.27c0,0-0.57-1.14-0.5-2.01l2.01-0.5l0.09,0.44l-1.47,0.32c0,0-0.05,0.65,0.15,0.89l2.24-0.7l-0.33-1.34
				c0,0-1.74-0.14-3.53,0.38c0,0,0.43,2.88,1.07,3.15c0,0,3.15-1.07,4.3-1.85C15.09,32.94,14.38,30.92,14.25,29.82z"/>
		</g>
		<g id="_x3C_Repetición_radial_x3E__00000158004628696615918830000005702227976913549242_">
			<path class="st1" d="M14.22,21.96l0.87,0.22c0,0-0.95,2.21-0.7,3.59l-6.35,0.28c0,0,0.43-3.99,0.75-5.05l4.63,1.52l-0.27,2.33
				l-3.6-0.22c0,0-0.06-1.27,0.36-2.04l2.04,0.36l-0.1,0.44l-1.47-0.3c0,0-0.31,0.57-0.22,0.87l2.33,0.27l0.24-1.36
				c0,0-1.53-0.83-3.38-1.09c0,0-0.78,2.8-0.31,3.31c0,0,3.31,0.31,4.68,0.06C13.73,25.16,13.9,23.02,14.22,21.96z"/>
		</g>
		<g id="_x3C_Repetición_radial_x3E__00000097463885410003134290000013151819277647807679_">
			<path class="st1" d="M17.4,14.77l0.7,0.56c0,0-1.77,1.63-2.1,2.99l-5.91-2.33c0,0,2.01-3.47,2.74-4.31l3.61,3.27l-1.2,2.02
				l-3.2-1.66c0,0,0.47-1.18,1.16-1.71l1.71,1.16l-0.27,0.37l-1.22-0.87c0,0-0.52,0.4-0.56,0.7l2.02,1.2l0.77-1.14
				c0,0-1.06-1.38-2.64-2.37c0,0-1.85,2.25-1.62,2.9c0,0,2.9,1.62,4.25,1.96C15.64,17.5,16.67,15.61,17.4,14.77z"/>
		</g>
		<g id="_x3C_Repetición_radial_x3E__00000026150191584588830180000012015499633942376344_">
			<path class="st1" d="M23.22,9.5l0.42,0.8c0,0-2.28,0.77-3.14,1.88l-4.45-4.53c0,0,3.25-2.35,4.26-2.82l1.97,4.46l-1.92,1.36
				l-2.25-2.82c0,0,0.91-0.89,1.75-1.09l1.09,1.75L20.56,8.7L19.8,7.4c0,0-0.64,0.15-0.8,0.42l1.36,1.92l1.17-0.73
				c0,0-0.41-1.7-1.45-3.24c0,0-2.6,1.3-2.66,1.99c0,0,1.99,2.66,3.09,3.52C20.51,11.27,22.21,9.96,23.22,9.5z"/>
		</g>
		<g id="_x3C_Repetición_radial_x3E__00000119825364528345757790000009667905029125298106_">
			<path class="st1" d="M30.69,7.05l0.06,0.9c0,0-2.4-0.22-3.63,0.44l-2.23-5.95c0,0,3.92-0.83,5.03-0.84l-0.01,4.88l-2.3,0.46
				L26.7,3.43c0,0,1.19-0.45,2.05-0.29l0.29,2.05l-0.45,0.05l-0.17-1.49c0,0-0.64-0.12-0.9,0.06l0.46,2.3l1.37-0.19
				c0,0,0.32-1.72-0.01-3.55c0,0-2.91,0.13-3.24,0.73c0,0,0.73,3.24,1.39,4.47C27.49,7.57,29.58,7.06,30.69,7.05z"/>
		</g>
		<g id="_x3C_Repetición_radial_x3E__00000103961330693390101120000013560626045202883753_">
			<path class="st1" d="M38.51,7.85l-0.31,0.84c0,0-2.1-1.18-3.49-1.08l0.39-6.34c0,0,3.92,0.84,4.94,1.28l-2,4.45l-2.29-0.52
				l0.59-3.56c0,0,1.27,0.08,1.99,0.57l-0.57,1.99l-0.43-0.14l0.45-1.43c0,0-0.54-0.37-0.84-0.31l-0.52,2.29l1.33,0.38
				c0,0,0.99-1.44,1.44-3.25c0,0-2.71-1.06-3.26-0.65c0,0-0.65,3.26-0.55,4.65C35.37,7.02,37.48,7.41,38.51,7.85z"/>
		</g>
		<g id="_x3C_Repetición_radial_x3E__00000018955765965436682120000006264998777153443218_">
			<path class="st1" d="M45.32,11.76l-0.63,0.64c0,0-1.44-1.93-2.75-2.4l2.94-5.64c0,0,3.24,2.36,4,3.18l-3.63,3.25l-1.88-1.4
				l1.99-3.01c0,0,1.13,0.59,1.58,1.33L45.6,9.29l-0.34-0.3l1-1.12c0,0-0.34-0.56-0.64-0.63l-1.4,1.88L45.27,10
				c0,0,1.49-0.91,2.63-2.38c0,0-2.04-2.07-2.71-1.92c0,0-1.92,2.71-2.39,4.02C42.8,9.72,44.57,10.94,45.32,11.76z"/>
		</g>
		<g id="_x3C_Repetición_radial_x3E__00000034790991111126870580000004232700538075424918_">
			<path class="st1" d="M49.96,18.1l-0.84,0.33c0,0-0.53-2.35-1.54-3.32l4.98-3.96c0,0,2,3.47,2.36,4.53l-4.64,1.49l-1.15-2.05
				l3.04-1.94c0,0,0.79,1,0.91,1.86l-1.86,0.91l-0.18-0.42l1.37-0.62c0,0-0.09-0.65-0.33-0.84l-2.05,1.15l0.6,1.24
				c0,0,1.73-0.23,3.37-1.11c0,0-1.02-2.72-1.7-2.85c0,0-2.85,1.7-3.82,2.7C48.48,15.22,49.6,17.05,49.96,18.1z"/>
		</g>
		<g id="_x3C_Repetición_radial_x3E__00000178903657743161267160000008599212806250702266_">
			<path class="st1" d="M51.61,25.78l-0.9-0.04c0,0,0.47-2.36-0.06-3.65l6.15-1.59c0,0,0.41,3.99,0.31,5.09l-4.85-0.52l-0.22-2.34
				l3.57-0.54c0,0,0.32,1.23,0.07,2.07l-2.07,0.07l0-0.45l1.5-0.01c0,0,0.19-0.63,0.04-0.9l-2.34,0.22l0.05,1.38
				c0,0,1.67,0.49,3.53,0.36c0,0,0.18-2.9-0.39-3.3c0,0-3.3,0.39-4.59,0.92C51.43,22.54,51.71,24.67,51.61,25.78z"/>
		</g>
		<g id="_x3C_Repetición_radial_x3E__00000076597588258122465190000005048029154141645445_">
			<path class="st1" d="M50,33.47l-0.8-0.4c0,0,1.39-1.97,1.43-3.36l6.27,1.05c0,0-1.24,3.81-1.79,4.78l-4.21-2.45l0.75-2.22
				l3.48,0.96c0,0-0.21,1.25-0.78,1.92l-1.92-0.78l0.19-0.41l1.38,0.6c0,0,0.42-0.5,0.4-0.8l-2.22-0.75l-0.52,1.28
				c0,0,1.33,1.13,3.08,1.77c0,0,1.34-2.58,0.99-3.17c0,0-3.17-0.99-4.57-1.03C51.15,30.44,50.54,32.5,50,33.47z"/>
		</g>
		<g id="_x3C_Repetición_radial_x3E__00000178173286188407123610000015682116721323064751_">
			<path class="st1" d="M45.4,39.84l-0.57-0.69c0,0,2.07-1.23,2.68-2.49l5.3,3.51c0,0-2.69,2.97-3.58,3.64l-2.85-3.95l1.59-1.73
				l2.79,2.29c0,0-0.7,1.06-1.49,1.44l-1.44-1.49l0.34-0.3l1.01,1.11c0,0,0.59-0.28,0.69-0.57l-1.73-1.59l-0.99,0.96
				c0,0,0.75,1.57,2.09,2.87c0,0,2.28-1.81,2.19-2.5c0,0-2.5-2.19-3.75-2.8C47.69,37.54,46.29,39.17,45.4,39.84z"/>
		</g>
		<g id="_x3C_Repetición_radial_x3E__00000150813447120815414740000015030774690134581937_">
			<path class="st1" d="M38.61,43.79l-0.24-0.87c0,0,2.39-0.28,3.46-1.18l3.41,5.36c0,0-3.66,1.62-4.75,1.87l-1-4.77l2.16-0.93
				l1.61,3.23c0,0-1.07,0.68-1.94,0.71l-0.71-1.94l0.43-0.14l0.47,1.42c0,0,0.65-0.02,0.87-0.24l-0.93-2.16l-1.3,0.47
				c0,0,0.05,1.74,0.75,3.47c0,0,2.82-0.73,3.02-1.39c0,0-1.39-3.02-2.29-4.08C41.63,42.62,39.69,43.54,38.61,43.79z"/>
		</g>
	</g>
	<rect x="47.27" y="11.11" class="st3" width="12.72" height="31.88"/>
	<rect x="51.67" y="8.79" class="st3" width="11.33" height="12.27"/>
	<rect x="43.63" y="36.61" class="st3" width="12.72" height="12.79"/>
	<rect x="34.95" y="40.03" class="st3" width="12.72" height="12.79"/>
	<rect x="24.63" y="41.14" class="st3" width="12.72" height="12.79"/>
	<rect x="21.29" y="40.03" class="st3" width="12.72" height="12.79"/>
	<rect x="18.22" y="43.93" class="st3" width="12.72" height="12.79"/>
	<path class="st2" d="M31.71,41.91c-3.12,0-6.04-0.91-8.55-2.49v3.85h17.04v-3.8C37.69,41.01,34.8,41.91,31.71,41.91z"/>
	<path class="st1" d="M40.19,39.46v-0.38H23.16v0.34c2.52,1.58,5.44,2.49,8.55,2.49C34.8,41.91,37.69,41.01,40.19,39.46z"/>
	<path class="st2" d="M48.73,24.61c0,3.19-0.91,6.18-2.49,8.75h3.85V15.94h-3.8C47.84,18.49,48.73,21.45,48.73,24.61z"/>
	<path class="st1" d="M46.29,15.94h-0.38v17.42h0.34c1.58-2.57,2.49-5.56,2.49-8.75C48.73,21.45,47.84,18.49,46.29,15.94z"/>
</g>
<g>
	<g>
		<g>
			<path d="M60.91,7.7V6.9h2.81V8h-0.2L60.91,7.7z M63.92,19.26l2.61,0.3v0.8h-5.63v-0.8l2.61-0.3H63.92z M62.81,13.13
				c0-2.07,0-4.16-0.06-6.23h1.93c-0.06,2.03-0.06,4.12-0.06,6.23v1.23c0,2.05,0,3.94,0.06,6.01h-1.93
				c0.06-2.03,0.06-4.12,0.06-6.23V13.13z M65.71,15.04h-1.99v-0.92h2.29c2.47,0,3.44-1.31,3.44-3.22c0-1.95-1.08-3.07-3.52-3.07
				h-2.21V6.9h2.59c3.34,0,5.04,1.65,5.04,4C71.36,13.15,69.81,15.04,65.71,15.04z"/>
			<path d="M81.05,14.41c0,0.46-0.06,0.86-0.14,1.13h-7.42v-0.84h4.78c0.96,0,1.19-0.46,1.19-1.02c0-1.15-0.96-2.19-2.23-2.19
				c-1.29,0-2.77,1.08-2.77,3.96c0,2.55,1.29,3.92,3.3,3.92c1.29,0,2.09-0.58,2.81-1.43l0.46,0.36c-0.72,1.43-2.01,2.33-3.84,2.33
				c-2.69,0-4.44-1.87-4.44-4.92c0-3.07,2.09-5.12,4.58-5.12C79.4,10.58,81.05,11.98,81.05,14.41z"/>
			<path d="M84.42,16.14V15.2c0-1.11-0.02-1.73-0.06-2.53l-1.61-0.18v-0.7l2.73-1.21l0.3,0.2l0.24,2.51v2.85
				c0,1.25,0.02,3.32,0.06,4.22h-1.73C84.4,19.46,84.42,17.39,84.42,16.14z M82.92,19.66l2.21-0.4h0.4l2.21,0.4v0.7h-4.82V19.66z
				 M85.23,13.43h1.15l-0.5,0.14c0.64-1.87,1.87-2.99,3.05-2.99c0.58,0,1.19,0.28,1.43,0.68c0,0.94-0.36,1.47-1.17,1.47
				c-0.46,0-0.84-0.18-1.21-0.48l-0.54-0.46l0.98-0.2c-1.25,0.64-1.97,1.65-2.43,3.2h-0.76V13.43z"/>
			<path d="M93.99,16.8c0,1.79,0.52,2.41,1.63,2.41c1.02,0,2.07-0.5,3.07-1.51h0.42v1.02h-1.03l0.7-0.3
				c-1.15,1.55-2.51,2.19-3.82,2.19c-1.61,0-2.61-0.96-2.59-3.62l0.06-5.31l0.42,0.38L91,11.68v-0.7l2.89-0.26l0.2,0.2l-0.1,2.81
				V16.8z M97.07,5.95c0.38-0.6,0.72-0.8,1.06-0.8c0.38,0,0.74,0.24,0.74,0.74c0,0.26-0.1,0.56-0.64,1.07
				c-0.8,0.74-1.61,1.47-2.45,2.21l-0.5-0.38C95.86,7.84,96.45,6.9,97.07,5.95z M98.78,20.52l-0.28-2.35l0.06-6.47l0.42,0.38
				l-1.87-0.4v-0.7l2.85-0.26l0.2,0.2l-0.06,2.81v6.01l-0.48-0.48l1.87,0.4v0.7L98.78,20.52z"/>
			<path d="M107.8,7.7V6.9h2.81V8h-0.2L107.8,7.7z M110.62,19.26v1.11h-2.81v-0.8l2.61-0.3H110.62z M109.71,13.13
				c0-2.07,0-4.16-0.06-6.23h1.93c-0.06,2.03-0.06,4.12-0.06,6.23v0.76c0,2.31,0,4.4,0.06,6.47h-1.93c0.06-2.03,0.06-4.12,0.06-6.47
				V13.13z M110.62,19.44h2.59c3.15,0,4.88-2.13,4.88-5.79c0-3.8-1.73-5.83-4.7-5.83h-2.77V6.9h3.12c3.82,0,6.47,2.37,6.47,6.75
				c0,4.34-2.97,6.71-6.87,6.71h-2.71V19.44z"/>
			<path d="M130.4,14.41c0,0.46-0.06,0.86-0.14,1.13h-7.42v-0.84h4.78c0.96,0,1.19-0.46,1.19-1.02c0-1.15-0.96-2.19-2.23-2.19
				c-1.29,0-2.77,1.08-2.77,3.96c0,2.55,1.29,3.92,3.3,3.92c1.29,0,2.09-0.58,2.81-1.43l0.46,0.36c-0.72,1.43-2.01,2.33-3.84,2.33
				c-2.69,0-4.44-1.87-4.44-4.92c0-3.07,2.09-5.12,4.58-5.12C128.75,10.58,130.4,11.98,130.4,14.41z"/>
			<path d="M132.45,19.86l-0.08-2.19h1.06l0.54,2.37l-0.98-0.46V18.9c0.7,0.54,1.47,0.82,2.47,0.82c1.55,0,2.27-0.62,2.27-1.55
				c0-0.86-0.6-1.31-1.87-1.77l-0.92-0.34c-1.47-0.54-2.43-1.33-2.43-2.69c0-1.45,1.23-2.79,3.46-2.79c1.08,0,1.93,0.3,2.79,0.82
				l-0.08,2.03h-1l-0.4-2.03l0.72,0.32v0.52c-0.64-0.5-1.33-0.76-2.05-0.76c-1.25,0-1.89,0.54-1.89,1.39c0,0.9,0.5,1.25,1.87,1.75
				l0.6,0.22c2.01,0.74,2.77,1.69,2.77,2.93c0,1.49-1.31,2.85-3.88,2.85C134.3,20.62,133.43,20.36,132.45,19.86z"/>
			<path d="M144.71,19.62c0.44,0,0.84-0.18,1.37-0.56l0.46,0.54c-0.5,0.64-1.33,1.02-2.33,1.02c-1.39,0-2.25-0.72-2.25-2.27
				c0-0.48,0.02-0.9,0.02-1.69v-4.78h-1.69v-0.86l2.49-0.32l-0.8,0.66l0.6-3.26h1.17l-0.16,3.52v6.51
				C143.58,19.18,144.03,19.62,144.71,19.62z M146.36,10.84v1.04h-3.58v-1.04H146.36z"/>
			<path d="M148.83,20.36c0.04-0.9,0.06-2.97,0.06-4.22V15.2c0-1.11-0.02-1.73-0.06-2.53l-1.65-0.18v-0.7l3.03-1.21l0.3,0.2
				l-0.06,2.71v2.65c0,1.25,0.02,3.32,0.06,4.22H148.83z M151.93,19.66v0.7h-4.62v-0.7l2.21-0.4h0.4L151.93,19.66z M148.33,7.04
				c0-0.76,0.58-1.27,1.33-1.27c0.74,0,1.33,0.5,1.33,1.27c0,0.74-0.58,1.27-1.33,1.27C148.91,8.3,148.33,7.78,148.33,7.04z"/>
			<path d="M154.88,20.36c0.04-0.9,0.06-2.97,0.06-4.22V15.2c0-1.11-0.02-1.73-0.06-2.53l-1.61-0.18v-0.7l2.73-1.21l0.3,0.2
				l0.24,2.33v3.03c0,1.25,0.02,3.32,0.06,4.22H154.88z M158.02,19.66v0.7h-4.62v-0.7l2.21-0.4h0.4L158.02,19.66z M162.66,14.29
				v1.85c0,1.29,0.02,3.32,0.06,4.22h-1.73c0.04-0.9,0.06-2.93,0.06-4.22v-1.69c0-1.87-0.48-2.47-1.69-2.47c-1,0-1.83,0.4-2.97,1.39
				h-0.42v-0.9h1.02l-0.86,0.36c0.94-1.27,2.55-2.25,3.98-2.25C161.84,10.58,162.66,11.64,162.66,14.29z M162.12,19.26l2.01,0.4v0.7
				h-4.62v-0.7l2.21-0.4H162.12z"/>
			<path d="M164.73,24.06c0.14-0.56,0.72-0.84,1.33-0.84c0.52,0,0.92,0.2,1.47,0.74l0.62,0.62l-0.78,0.44l-0.54-0.44
				c1.35-0.66,2.15-2.05,2.65-3.46l0.62-1.75l3.09-8.54h1.09l-3.58,9.4c-1.37,3.62-2.49,5.14-4.14,5.14
				C165.58,25.39,164.73,24.84,164.73,24.06z M166.78,11.84l-1.97-0.3v-0.7h4.78v0.72l-2.41,0.28H166.78z M169.78,21.41l-4.2-10.57
				h1.87l3.16,8.56L169.78,21.41z M173.19,11.84l-2.13-0.3v-0.7H175v0.7l-1.41,0.3H173.19z"/>
		</g>
	</g>
	<g>
		<g>
			<path d="M61.17,28.24h1.26v-1.12h0.76v1.12h1.6v0.31h-1.6v3.35c0,0.25,0.12,0.52,0.79,0.52c0.2,0,0.55-0.01,0.73-0.03v0.28
				c-0.27,0.04-0.66,0.05-0.96,0.05c-0.68,0-1.32-0.18-1.32-0.76v-3.42h-1.26V28.24z"/>
			<path d="M65.84,29.76c0-0.69,0-1.19-0.02-1.52h0.76c0.02,0.15,0.04,0.31,0.04,0.67c0.35-0.49,1.2-0.7,2.04-0.72v0.42
				c-1.36,0.01-2.04,0.52-2.04,1.21v2.85h-0.78V29.76z"/>
			<path d="M73.77,32.06c0,0.33,0.02,0.53,0.04,0.62h-0.76c-0.06-0.13-0.08-0.31-0.08-0.4c-0.31,0.39-1.01,0.47-1.65,0.47
				c-1.41,0-1.96-0.52-1.96-1.22v-0.08c0-0.91,1.15-1.33,2.94-1.33c0.22,0,0.38,0,0.66,0v-0.85c0-0.46-0.22-0.78-1.21-0.78
				c-0.99,0-1.29,0.33-1.29,0.75v0.17H69.7v-0.17c0-0.6,0.55-1.08,2.09-1.08c1.57,0,1.99,0.5,1.99,1.08V32.06z M72.99,30.43
				c-0.16,0-0.46,0-0.66,0c-1.39,0-2.16,0.27-2.16,1v0.08c0,0.48,0.3,0.91,1.27,0.91c1.21,0,1.55-0.46,1.55-1.19V30.43z"/>
			<path d="M75.84,28.24c0.29,0.62,1.53,3.33,1.72,4.02h0.02c0.12-0.58,1.49-3.34,1.78-4.02h0.8l-2.14,4.44h-0.93l-2.07-4.44H75.84z
				"/>
			<path d="M81.87,30.47v0.8c0,0.55,0.22,1.16,1.47,1.16c1.13,0,1.39-0.37,1.39-0.91v-0.05h0.78v0.04c0,0.57-0.32,1.23-2.21,1.23
				c-1.63,0-2.21-0.51-2.21-1.42v-1.86c0-0.74,0.65-1.3,2.27-1.3c1.74,0,2.17,0.63,2.17,1.31c0,0.22,0,0.75,0,0.99H81.87z
				 M84.76,30.16V29.5c0-0.42-0.08-1.02-1.41-1.02c-1.29,0-1.47,0.5-1.47,1.03v0.65H84.76z"/>
			<path d="M87.19,32.68v-6.19h0.78v6.19H87.19z"/>
			<path d="M96.87,32.06c0,0.33,0.02,0.53,0.04,0.62h-0.76c-0.06-0.13-0.08-0.31-0.08-0.4c-0.31,0.39-1.01,0.47-1.65,0.47
				c-1.41,0-1.96-0.52-1.96-1.22v-0.08c0-0.91,1.15-1.33,2.94-1.33c0.22,0,0.38,0,0.66,0v-0.85c0-0.46-0.22-0.78-1.21-0.78
				c-0.99,0-1.29,0.33-1.29,0.75v0.17h-0.78v-0.17c0-0.6,0.55-1.08,2.09-1.08c1.57,0,1.99,0.5,1.99,1.08V32.06z M96.09,30.43
				c-0.16,0-0.46,0-0.66,0c-1.39,0-2.16,0.27-2.16,1v0.08c0,0.48,0.3,0.91,1.27,0.91c1.21,0,1.55-0.46,1.55-1.19V30.43z"/>
			<path d="M103.23,32.75c0,0.81-0.24,1.51-2.42,1.51c-1.8,0-2.19-0.58-2.19-1.05v-0.03h0.8v0.04c0,0.32,0.28,0.73,1.43,0.73
				c1.27,0,1.59-0.41,1.59-1.13v-0.66c-0.28,0.36-0.81,0.52-1.77,0.52c-1.23,0-2.04-0.35-2.04-1.32v-1.89
				c0-0.97,1.04-1.29,2.24-1.29c1.02,0,1.52,0.25,1.65,0.45c0-0.12,0.04-0.27,0.06-0.38h0.67c-0.02,0.21-0.04,0.65-0.04,1.23V32.75z
				 M99.45,29.47v1.85c0,0.7,0.44,1.03,1.33,1.03c1.47,0,1.69-0.73,1.69-1.38v-1.32c0-0.65-0.16-1.14-1.53-1.14
				C99.83,28.5,99.45,28.89,99.45,29.47z"/>
			<path d="M105.76,30.47v0.8c0,0.55,0.22,1.16,1.47,1.16c1.13,0,1.39-0.37,1.39-0.91v-0.05h0.78v0.04c0,0.57-0.32,1.23-2.21,1.23
				c-1.63,0-2.21-0.51-2.21-1.42v-1.86c0-0.74,0.65-1.3,2.27-1.3c1.74,0,2.17,0.63,2.17,1.31c0,0.22,0,0.75,0,0.99H105.76z
				 M108.65,30.16V29.5c0-0.42-0.08-1.02-1.41-1.02c-1.29,0-1.47,0.5-1.47,1.03v0.65H108.65z"/>
			<path d="M111.08,29.57c0-0.88,0-1.09-0.02-1.33h0.74c0.02,0.1,0.04,0.23,0.04,0.49c0.3-0.4,0.97-0.56,1.85-0.56
				c0.98,0,1.91,0.22,1.91,1.01v3.49h-0.78v-3.42c0-0.46-0.34-0.76-1.27-0.76c-0.99,0-1.69,0.2-1.69,1.29v2.88h-0.78V29.57z"/>
			<path d="M121.71,31.35v0.06c0,0.73-0.43,1.33-2.21,1.33c-1.6,0-2.15-0.51-2.15-1.39v-1.93c0-0.78,0.71-1.25,2.23-1.25
				c1.65,0,2.13,0.54,2.13,1.17v0.19h-0.8v-0.12c0-0.47-0.18-0.94-1.35-0.94c-0.99,0-1.41,0.32-1.41,1v1.88
				c0,0.5,0.22,1.07,1.37,1.07c0.97,0,1.39-0.25,1.39-1.02v-0.07H121.71z"/>
			<path d="M123.27,28.24c0.81,1.79,1.59,3.51,1.69,3.96h0.02c0.22-0.67,1.19-2.67,1.78-3.96h0.8l-2.24,4.7
				c-0.57,1.19-1.21,1.31-2.27,1.31c-0.17,0-0.41-0.02-0.54-0.04l0-0.34c0.14,0.02,0.39,0.04,0.53,0.04c0.85,0,1.15-0.18,1.54-1.08
				l-2.16-4.59H123.27z"/>
		</g>
	</g>
</g>
<g>
	<g>
		<path d="M134.1-33.38h0.46v7.59h2.01l-0.08,0.42h-2.39V-33.38z"/>
		<path d="M139.7-29.82v2.73c0,1.32-0.59,1.82-1.38,1.82c-0.77,0-1.34-0.46-1.34-1.76v-2.77c0-1,0.47-1.66,1.38-1.66
			C139.29-31.47,139.7-30.82,139.7-29.82z M137.45-29.79v2.78c0,0.83,0.3,1.32,0.88,1.32c0.54,0,0.89-0.35,0.89-1.32v-2.78
			c0-0.73-0.27-1.25-0.88-1.25C137.72-31.04,137.45-30.58,137.45-29.79z"/>
		<path d="M140.74-29.32c0-0.94,0-1.6-0.01-2.05h0.45c0.01,0.2,0.02,0.41,0.02,0.9c0.21-0.66,0.71-0.95,1.2-0.97v0.57
			c-0.8,0.01-1.2,0.71-1.2,1.64v3.86h-0.46V-29.32z"/>
		<path d="M143.35-28.35v1.09c0,0.74,0.13,1.57,0.87,1.57c0.67,0,0.82-0.5,0.82-1.23v-0.07h0.46v0.06c0,0.76-0.19,1.66-1.3,1.66
			c-0.96,0-1.31-0.69-1.31-1.91v-2.52c0-1,0.38-1.76,1.34-1.76c1.03,0,1.28,0.85,1.28,1.77c0,0.3,0,1.01,0,1.34H143.35z
			 M145.05-28.77v-0.89c0-0.56-0.05-1.38-0.83-1.38c-0.76,0-0.87,0.67-0.87,1.39v0.88H145.05z"/>
		<path d="M146.49-29.65c0-0.98,0-1.41-0.01-1.72h0.44c0.02,0.17,0.02,0.41,0.02,0.6c0.15-0.41,0.45-0.69,1-0.69
			c0.43,0,0.78,0.17,0.9,0.74c0.16-0.41,0.47-0.74,1.06-0.74c0.52,0,1.07,0.19,1.07,1.34v4.76h-0.46v-4.64
			c0-0.53-0.07-1.01-0.68-1.01c-0.71,0-0.87,0.69-0.87,1.39v4.26h-0.46v-4.57c0-0.75-0.17-1.08-0.7-1.08
			c-0.68,0-0.84,0.71-0.84,1.51v4.14h-0.46V-29.65z"/>
		<path d="M153.87-33.74h0.46v1.15h-0.46V-33.74z M153.87-31.37h0.46v6h-0.46V-31.37z"/>
		<path d="M156.01-25.93v2.6h-0.46v-6.3c0-0.83,0-1.34-0.01-1.74h0.44c0.01,0.14,0.02,0.35,0.02,0.69c0.12-0.42,0.43-0.79,1.07-0.79
			c0.81,0,1.2,0.52,1.2,1.72v2.64c0,1.27-0.57,1.84-1.25,1.84C156.33-25.27,156.1-25.64,156.01-25.93z M157.79-27.09v-2.7
			c0-0.92-0.36-1.23-0.79-1.23c-0.88,0-1.01,0.83-1.01,1.7v1.84c0,0.79,0.08,1.76,0.95,1.76C157.52-25.72,157.79-26.2,157.79-27.09z
			"/>
		<path d="M159.4-27.05v0.25c0,0.81,0.37,1.11,0.84,1.11c0.59,0,0.82-0.38,0.82-1.09c0-0.78-0.24-1.07-0.88-1.5
			c-0.78-0.53-1.13-0.94-1.13-1.74c0-0.75,0.31-1.43,1.22-1.43c0.99,0,1.19,0.73,1.19,1.42v0.31h-0.46v-0.29
			c0-0.61-0.16-1.02-0.75-1.02c-0.51,0-0.72,0.35-0.72,0.96c0,0.61,0.18,0.87,0.84,1.32c0.7,0.48,1.17,0.89,1.17,1.89
			c0,1.02-0.4,1.6-1.33,1.6c-0.99,0-1.28-0.71-1.28-1.51v-0.28H159.4z"/>
		<path d="M165.06-26.85c0,0.67,0,1.23,0.01,1.48h-0.44c-0.01-0.1-0.02-0.42-0.02-0.68c-0.16,0.56-0.5,0.78-1.03,0.78
			c-0.42,0-1.14-0.11-1.14-1.5v-4.6h0.46v4.47c0,0.88,0.23,1.19,0.76,1.19c0.46,0,0.94-0.26,0.94-1.79v-3.87h0.46V-26.85z"/>
		<path d="M166.27-29.65c0-0.98,0-1.41-0.01-1.72h0.44c0.02,0.17,0.02,0.41,0.02,0.6c0.15-0.41,0.45-0.69,1-0.69
			c0.43,0,0.78,0.17,0.9,0.74c0.16-0.41,0.47-0.74,1.06-0.74c0.52,0,1.07,0.19,1.07,1.34v4.76h-0.46v-4.64
			c0-0.53-0.07-1.01-0.68-1.01c-0.71,0-0.87,0.69-0.87,1.39v4.26h-0.46v-4.57c0-0.75-0.17-1.08-0.7-1.08
			c-0.68,0-0.84,0.71-0.84,1.51v4.14h-0.46V-29.65z"/>
	</g>
</g>
</svg>
